# xmcd
#
# Track frame offsets:
#	150
#	13072
#	26980
#	40645
#	53342
#	67525
#	80897
#	92300
#	106217
#	118707
#	130317
#	143142
#	156890
#	169410
#	182822
#	195722
#	208175
#	220252
#	233080
#	244292
#
# Disc length: 3409 seconds
# Revision: 1
# Processed by: cddbd v1.5.2PL0 Copyright (c) Steve Scherf et al.
# Submitted via: dBpowerAMP V12.0
#
DISCID=150d4f14
DTITLE=Little Walter - From the vaults decca
DYEAR=2010
DGENRE=Blues
TTITLE0=Blues with a Feeling
TTITLE1=Juke
TTITLE2=Sad Hours
TTITLE3=Tell Me Mama
TTITLE4=Off the Wall
TTITLE5=You Better Watch Yourself
TTITLE6=My Babe
TTITLE7=Last Night
TTITLE8=You're So Fine
TTITLE9=Roller Coaster
TTITLE10=Moonshine Blues
TTITLE11=Bad Acting Woman
TTITLE12=Blue Baby
TTITLE13=Can't Hold on Much Longer
TTITLE14=Tonight with a Fool
TTITLE15=Boogie
TTITLE16=Red Headed Woman
TTITLE17=I Just Keep Loving Her
TTITLE18=Mean Old World
TTITLE19=Lights Out
EXTD=
EXTT0=
EXTT1=
EXTT2=
EXTT3=
EXTT4=
EXTT5=
EXTT6=
EXTT7=
EXTT8=
EXTT9=
EXTT10=
EXTT11=
EXTT12=
EXTT13=
EXTT14=
EXTT15=
EXTT16=
EXTT17=
EXTT18=
EXTT19=
PLAYORDER=
